<svg width="165.000000" height="70.000000" viewBox="0 0 165 70" fill="none" xmlns="http://www.w3.org/2000/svg" xmlns:xlink="http://www.w3.org/1999/xlink">
	<desc>
			Created with Pixso.
	</desc>
	<defs>
		<clipPath id="clip38_21">
			<rect id="Group 128 1" rx="0.000000" width="164.000000" height="69.000000" transform="translate(0.500000 0.500000)" fill="white" fill-opacity="0"/>
		</clipPath>
	</defs>
	<rect id="Group 128 1" rx="0.000000" width="164.000000" height="69.000000" transform="translate(0.500000 0.500000)" fill="#FFFFFF" fill-opacity="0"/>
	<g clip-path="url(#clip38_21)">
		<path id="Vector" d="M19.1 21.75L1.73 39.25L19.1 56.75" stroke="#000000" stroke-opacity="1.000000" stroke-width="2.000000" stroke-linejoin="round" stroke-linecap="round"/>
		<path id="Vector" d="M53.84 21.75L71.21 39.25L53.84 56.75" stroke="#000000" stroke-opacity="1.000000" stroke-width="2.000000" stroke-linejoin="round" stroke-linecap="round"/>
		<path id="Vector" d="M42.61 8.82L27.69 64.9C27.49 65.66 26.71 66.12 25.96 65.91C25.2 65.71 24.75 64.92 24.96 64.16L39.87 8.08C40.07 7.32 40.85 6.87 41.61 7.07C42.36 7.27 42.81 8.06 42.61 8.82Z" fill="#000000" fill-opacity="1.000000" fill-rule="nonzero"/>
		<path id="Vector" d="M39.87 8.08C40.07 7.32 40.85 6.87 41.61 7.07C42.36 7.27 42.81 8.06 42.61 8.82L40.79 15.65L38.05 14.91L39.87 8.08Z" fill="#D9D9D9" fill-opacity="1.000000" fill-rule="nonzero"/>
		<path id="Vector" d="M44.62 12.28L50.1 13.76" stroke="#000000" stroke-opacity="1.000000" stroke-width="1.500000" stroke-linecap="round"/>
		<path id="Vector" d="M30.93 8.59L36.41 10.07" stroke="#000000" stroke-opacity="1.000000" stroke-width="1.500000" stroke-linecap="round"/>
		<path id="Vector" d="M34.12 2.11L36.96 7.03" stroke="#000000" stroke-opacity="1.000000" stroke-width="1.500000" stroke-linecap="round"/>
		<path id="Vector" d="M30.54 15.56L35.44 12.74" stroke="#000000" stroke-opacity="1.000000" stroke-width="1.500000" stroke-linecap="round"/>
		<path id="Vector" d="M43.89 15.02L46.74 19.94" stroke="#000000" stroke-opacity="1.000000" stroke-width="1.500000" stroke-linecap="round"/>
		<path id="Vector" d="M45.41 9.31L50.32 6.49" stroke="#000000" stroke-opacity="1.000000" stroke-width="1.500000" stroke-linecap="round"/>
		<path id="Vector" d="M95.55 26.37C94.1 26.37 92.8 26.05 91.63 25.4C90.48 24.76 89.57 23.87 88.9 22.74C88.25 21.59 87.92 20.31 87.92 18.89C87.92 17.48 88.25 16.21 88.9 15.07C89.57 13.92 90.48 13.03 91.65 12.38C92.82 11.74 94.12 11.42 95.57 11.42C96.65 11.42 97.65 11.6 98.57 11.97C99.49 12.33 100.27 12.86 100.91 13.56L99.93 14.55C98.79 13.39 97.35 12.81 95.61 12.81C94.46 12.81 93.41 13.07 92.46 13.6C91.52 14.13 90.78 14.86 90.23 15.79C89.71 16.71 89.44 17.75 89.44 18.89C89.44 20.04 89.71 21.08 90.23 22C90.78 22.93 91.52 23.65 92.46 24.19C93.41 24.72 94.46 24.99 95.61 24.99C97.36 24.99 98.8 24.4 99.93 23.22L100.91 24.21C100.27 24.91 99.48 25.45 98.55 25.83C97.63 26.19 96.63 26.37 95.55 26.37ZM107.87 26.35C106.82 26.35 105.87 26.11 105.02 25.64C104.17 25.15 103.5 24.47 103.02 23.62C102.53 22.77 102.29 21.8 102.29 20.72C102.29 19.64 102.53 18.68 103.02 17.82C103.5 16.97 104.17 16.31 105.02 15.83C105.87 15.35 106.82 15.11 107.87 15.11C108.93 15.11 109.88 15.35 110.73 15.83C111.58 16.31 112.24 16.97 112.71 17.82C113.2 18.68 113.44 19.64 113.44 20.72C113.44 21.8 113.2 22.77 112.71 23.62C112.24 24.47 111.58 25.15 110.73 25.64C109.88 26.11 108.93 26.35 107.87 26.35ZM107.87 25.03C108.65 25.03 109.35 24.85 109.96 24.5C110.58 24.14 111.07 23.63 111.42 22.97C111.76 22.31 111.94 21.56 111.94 20.72C111.94 19.88 111.76 19.13 111.42 18.48C111.07 17.82 110.58 17.31 109.96 16.96C109.35 16.6 108.65 16.42 107.87 16.42C107.1 16.42 106.39 16.6 105.77 16.96C105.16 17.31 104.67 17.82 104.31 18.48C103.96 19.13 103.79 19.88 103.79 20.72C103.79 21.56 103.96 22.31 104.31 22.97C104.67 23.63 105.16 24.14 105.77 24.5C106.39 24.85 107.1 25.03 107.87 25.03ZM126.46 10.66L126.46 26.25L125.05 26.25L125.05 24.06C124.6 24.8 124.01 25.37 123.28 25.76C122.55 26.15 121.73 26.35 120.82 26.35C119.79 26.35 118.86 26.11 118.02 25.64C117.19 25.16 116.54 24.5 116.06 23.64C115.59 22.79 115.36 21.81 115.36 20.72C115.36 19.63 115.59 18.66 116.06 17.8C116.54 16.95 117.19 16.29 118.02 15.83C118.86 15.35 119.79 15.11 120.82 15.11C121.71 15.11 122.5 15.3 123.21 15.68C123.94 16.05 124.53 16.59 124.98 17.3L124.98 10.66L126.46 10.66ZM120.94 25.03C121.71 25.03 122.39 24.85 123 24.5C123.63 24.14 124.12 23.63 124.46 22.97C124.82 22.31 125.01 21.56 125.01 20.72C125.01 19.88 124.82 19.13 124.46 18.48C124.12 17.82 123.63 17.31 123 16.96C122.39 16.6 121.71 16.42 120.94 16.42C120.16 16.42 119.46 16.6 118.84 16.96C118.22 17.31 117.74 17.82 117.38 18.48C117.03 19.13 116.86 19.88 116.86 20.72C116.86 21.56 117.03 22.31 117.38 22.97C117.74 23.63 118.22 24.14 118.84 24.5C119.46 24.85 120.16 25.03 120.94 25.03ZM130.59 15.2L132.06 15.2L132.06 26.25L130.59 26.25L130.59 15.2ZM131.34 12.78C131.03 12.78 130.77 12.68 130.56 12.47C130.36 12.26 130.25 12.01 130.25 11.71C130.25 11.43 130.36 11.19 130.56 10.98C130.77 10.77 131.03 10.66 131.34 10.66C131.64 10.66 131.9 10.77 132.11 10.98C132.32 11.17 132.42 11.41 132.42 11.69C132.42 12 132.32 12.26 132.11 12.47C131.9 12.68 131.64 12.78 131.34 12.78ZM141.77 15.11C143.14 15.11 144.23 15.52 145.04 16.33C145.86 17.13 146.27 18.3 146.27 19.84L146.27 26.25L144.79 26.25L144.79 19.99C144.79 18.84 144.5 17.96 143.94 17.36C143.37 16.76 142.55 16.46 141.5 16.46C140.32 16.46 139.38 16.82 138.68 17.53C138 18.23 137.66 19.2 137.66 20.45L137.66 26.25L136.18 26.25L136.18 15.2L137.6 15.2L137.6 17.24C138 16.56 138.56 16.05 139.27 15.68C139.99 15.3 140.82 15.11 141.77 15.11ZM160.48 15.2L160.48 24.9C160.48 26.78 160.02 28.16 159.1 29.06C158.2 29.97 156.83 30.42 155 30.42C153.98 30.42 153.02 30.27 152.1 29.96C151.2 29.67 150.46 29.26 149.89 28.72L150.64 27.59C151.17 28.07 151.81 28.44 152.56 28.7C153.32 28.97 154.12 29.1 154.96 29.1C156.34 29.1 157.37 28.77 158.02 28.11C158.67 27.47 159 26.46 159 25.09L159 23.68C158.54 24.38 157.94 24.91 157.19 25.28C156.45 25.64 155.63 25.83 154.73 25.83C153.7 25.83 152.76 25.6 151.91 25.15C151.08 24.69 150.42 24.05 149.93 23.24C149.46 22.42 149.22 21.49 149.22 20.45C149.22 19.41 149.46 18.49 149.93 17.68C150.42 16.86 151.08 16.24 151.91 15.79C152.75 15.34 153.68 15.11 154.73 15.11C155.66 15.11 156.5 15.3 157.25 15.68C158 16.06 158.6 16.61 159.06 17.32L159.06 15.2L160.48 15.2ZM154.87 24.5C155.66 24.5 156.38 24.33 157.02 24C157.66 23.65 158.15 23.16 158.5 22.55C158.86 21.93 159.04 21.23 159.04 20.45C159.04 19.66 158.86 18.97 158.5 18.37C158.15 17.75 157.66 17.28 157.02 16.94C156.39 16.59 155.68 16.42 154.87 16.42C154.08 16.42 153.36 16.59 152.73 16.92C152.1 17.26 151.61 17.73 151.25 18.35C150.9 18.96 150.72 19.66 150.72 20.45C150.72 21.23 150.9 21.93 151.25 22.55C151.61 23.16 152.1 23.65 152.73 24C153.36 24.33 154.08 24.5 154.87 24.5Z" fill="#000000" fill-opacity="1.000000" fill-rule="nonzero"/>
		<path id="Vector" d="M135.39 41.04C135.1 41.47 134.78 41.98 134.42 42.59C134.06 43.19 133.67 43.86 133.27 44.61C132.92 45.23 132.58 45.89 132.24 46.6C131.91 47.29 131.59 47.99 131.28 48.68C130.98 49.36 130.7 50.02 130.44 50.66C130.18 51.29 129.96 51.84 129.77 52.33C129.58 52.81 129.43 53.19 129.32 53.49C129.21 53.77 129.16 53.92 129.16 53.93C129.09 54.1 128.97 54.18 128.79 54.18C128.7 54.18 128.62 54.16 128.56 54.1C128.49 54.04 128.44 53.96 128.42 53.88C128.42 53.87 128.39 53.73 128.32 53.45C128.26 53.16 128.17 52.78 128.07 52.31C127.96 51.83 127.83 51.28 127.69 50.67C127.56 50.04 127.41 49.4 127.25 48.73C127.1 48.05 126.95 47.37 126.8 46.68C126.64 45.99 126.49 45.33 126.36 44.71C125.9 46 125.44 47.15 124.98 48.14C124.53 49.14 124.06 50 123.58 50.74C123.1 51.47 122.6 52.08 122.08 52.58C121.57 53.08 121.04 53.49 120.48 53.79C119.92 54.09 119.33 54.31 118.71 54.44C118.1 54.57 117.46 54.63 116.77 54.63C116.42 54.63 116.04 54.59 115.64 54.51C115.24 54.44 114.84 54.32 114.45 54.15C114.06 53.99 113.68 53.78 113.32 53.54C112.96 53.29 112.64 53 112.36 52.67C112.09 52.32 111.87 51.94 111.7 51.52C111.54 51.09 111.46 50.61 111.46 50.08C111.46 49.53 111.57 49.02 111.8 48.56C112.04 48.1 112.35 47.7 112.74 47.37C113.13 47.04 113.59 46.78 114.1 46.6C114.63 46.41 115.18 46.32 115.75 46.32C116.17 46.32 116.55 46.36 116.88 46.43C117.22 46.5 117.52 46.59 117.78 46.7C118.04 46.81 118.26 46.93 118.44 47.06C118.62 47.19 118.78 47.31 118.9 47.42C119.02 47.53 119.11 47.62 119.16 47.7C119.22 47.78 119.25 47.82 119.25 47.82C119.29 47.89 119.32 47.96 119.32 48.03C119.32 48.13 119.28 48.22 119.2 48.3C119.14 48.38 119.04 48.42 118.93 48.42C118.79 48.42 118.68 48.36 118.6 48.25C118.6 48.24 118.54 48.18 118.44 48.06C118.34 47.94 118.17 47.81 117.94 47.66C117.71 47.52 117.41 47.39 117.05 47.27C116.69 47.16 116.25 47.1 115.72 47.1C115.25 47.1 114.8 47.17 114.37 47.32C113.95 47.47 113.58 47.67 113.26 47.94C112.95 48.21 112.7 48.52 112.51 48.89C112.32 49.25 112.23 49.65 112.23 50.09C112.23 50.52 112.3 50.92 112.45 51.27C112.59 51.63 112.78 51.94 113.02 52.23C113.25 52.51 113.53 52.75 113.84 52.95C114.15 53.16 114.48 53.33 114.82 53.47C115.16 53.6 115.5 53.69 115.83 53.76C116.18 53.82 116.51 53.86 116.81 53.86C117.33 53.86 117.83 53.82 118.32 53.74C118.81 53.66 119.3 53.51 119.77 53.29C120.25 53.07 120.73 52.77 121.19 52.39C121.65 52.01 122.11 51.51 122.56 50.89C123.02 50.28 123.46 49.54 123.9 48.67C124.35 47.8 124.8 46.77 125.25 45.59C125.38 45.24 125.52 44.85 125.65 44.44C125.77 44.03 125.91 43.62 126.04 43.2C125.93 42.6 125.84 42.09 125.79 41.66C125.74 41.24 125.72 40.89 125.72 40.61C125.72 40.31 125.74 40.07 125.79 39.89C125.84 39.71 125.9 39.58 125.97 39.49C126.05 39.39 126.13 39.34 126.22 39.32C126.3 39.29 126.39 39.27 126.47 39.27C126.54 39.27 126.61 39.29 126.69 39.32C126.78 39.34 126.86 39.4 126.93 39.5C127 39.59 127.06 39.72 127.11 39.9C127.16 40.08 127.18 40.32 127.18 40.62C127.18 40.95 127.15 41.33 127.09 41.76C127.03 42.19 126.94 42.66 126.82 43.18C126.9 43.6 127.01 44.06 127.12 44.58C127.24 45.09 127.35 45.62 127.48 46.18C127.6 46.72 127.72 47.28 127.85 47.86C127.98 48.43 128.11 48.99 128.23 49.54C128.35 50.09 128.47 50.61 128.58 51.11C128.69 51.61 128.8 52.06 128.89 52.46C129.07 52 129.3 51.44 129.56 50.78C129.83 50.12 130.12 49.42 130.45 48.68C130.77 47.93 131.12 47.18 131.48 46.41C131.84 45.64 132.22 44.91 132.6 44.23C133.13 43.26 133.62 42.43 134.07 41.74C134.52 41.04 134.91 40.46 135.23 40.01C135.56 39.56 135.81 39.23 135.99 39.02C136.18 38.8 136.29 38.68 136.3 38.66C136.37 38.58 136.47 38.55 136.58 38.55C136.69 38.55 136.78 38.59 136.85 38.67C136.92 38.74 136.96 38.83 136.96 38.94C136.96 38.98 136.95 39.03 136.93 39.08C136.93 39.09 136.89 39.19 136.81 39.39C136.73 39.58 136.64 39.85 136.51 40.19C136.4 40.52 136.27 40.92 136.13 41.38C135.98 41.83 135.85 42.32 135.71 42.84C135.57 43.36 135.45 43.91 135.34 44.48C135.24 45.05 135.17 45.62 135.12 46.19C135.1 46.45 135.08 46.72 135.07 47.01C135.06 47.29 135.05 47.57 135.05 47.86C135.05 48.31 135.07 48.76 135.11 49.22C135.15 49.68 135.22 50.12 135.31 50.54C135.41 50.97 135.54 51.37 135.7 51.74C135.86 52.11 136.06 52.44 136.3 52.72C136.54 53 136.82 53.22 137.14 53.39C137.48 53.56 137.86 53.66 138.3 53.67C138.4 53.68 138.49 53.73 138.55 53.81C138.62 53.9 138.65 53.99 138.65 54.08C138.65 54.18 138.61 54.26 138.54 54.34C138.46 54.41 138.38 54.45 138.27 54.45C138.17 54.45 138.06 54.44 137.95 54.42C137.46 54.35 137.03 54.21 136.66 54C136.28 53.78 135.96 53.51 135.69 53.2C135.42 52.88 135.19 52.52 135.01 52.11C134.83 51.7 134.69 51.26 134.58 50.8C134.47 50.33 134.39 49.85 134.35 49.35C134.31 48.85 134.28 48.34 134.28 47.83C134.28 47.22 134.32 46.61 134.38 46C134.44 45.39 134.52 44.8 134.62 44.23C134.72 43.65 134.84 43.09 134.98 42.55C135.11 42.01 135.25 41.5 135.39 41.04ZM147.11 51.38C147.08 51.44 147.02 51.56 146.94 51.73C146.85 51.9 146.75 52.1 146.61 52.33C146.48 52.55 146.33 52.79 146.15 53.04C145.97 53.28 145.78 53.51 145.56 53.71C145.34 53.92 145.11 54.09 144.86 54.22C144.61 54.35 144.34 54.42 144.07 54.42C143.67 54.42 143.34 54.29 143.07 54.04C142.8 53.79 142.61 53.47 142.49 53.09C142.26 53.48 141.98 53.79 141.66 54.02C141.34 54.25 141.03 54.36 140.71 54.36C140.46 54.36 140.23 54.31 140.02 54.22C139.82 54.13 139.65 54 139.5 53.83C139.36 53.66 139.25 53.47 139.17 53.24C139.1 53.01 139.06 52.77 139.06 52.5C139.06 51.97 139.15 51.5 139.32 51.1C139.5 50.69 139.74 50.35 140.01 50.07C140.29 49.8 140.6 49.59 140.93 49.46C141.27 49.32 141.6 49.25 141.91 49.25C142.12 49.25 142.31 49.28 142.49 49.34C142.66 49.4 142.81 49.46 142.94 49.53C143.06 49.6 143.16 49.66 143.23 49.72C143.3 49.78 143.34 49.81 143.34 49.82C143.42 49.9 143.45 50 143.45 50.09C143.45 50.19 143.42 50.29 143.34 50.37C143.27 50.44 143.18 50.48 143.08 50.48C142.97 50.48 142.88 50.44 142.8 50.37C142.79 50.36 142.76 50.33 142.71 50.3C142.66 50.26 142.6 50.22 142.52 50.17C142.44 50.13 142.34 50.1 142.22 50.07C142.11 50.04 141.99 50.02 141.85 50.02C141.64 50.02 141.41 50.07 141.17 50.16C140.94 50.26 140.72 50.41 140.52 50.62C140.33 50.81 140.16 51.07 140.02 51.37C139.9 51.67 139.83 52.03 139.83 52.45C139.83 52.58 139.85 52.71 139.87 52.85C139.9 52.98 139.95 53.1 140.01 53.21C140.08 53.32 140.17 53.41 140.29 53.48C140.4 53.54 140.55 53.58 140.72 53.58C140.84 53.58 140.98 53.54 141.13 53.46C141.3 53.37 141.45 53.25 141.59 53.08C141.74 52.91 141.87 52.69 141.99 52.43C142.11 52.17 142.2 51.86 142.24 51.51C142.26 51.41 142.3 51.33 142.38 51.27C142.45 51.2 142.54 51.17 142.64 51.17C142.74 51.17 142.82 51.21 142.88 51.28C142.96 51.36 143 51.44 143.01 51.54C143.01 51.67 143.03 51.85 143.05 52.09C143.07 52.32 143.11 52.56 143.18 52.79C143.25 53.02 143.36 53.22 143.5 53.39C143.65 53.56 143.84 53.65 144.1 53.65C144.26 53.65 144.42 53.61 144.57 53.52C144.74 53.43 144.89 53.31 145.04 53.17C145.2 53.02 145.34 52.85 145.48 52.67C145.62 52.47 145.75 52.28 145.87 52.09C145.98 51.9 146.08 51.72 146.17 51.54C146.26 51.36 146.33 51.21 146.39 51.08C146.43 51 146.48 50.94 146.54 50.9C146.61 50.86 146.68 50.84 146.75 50.84C146.87 50.84 146.96 50.89 147.03 50.97C147.1 51.06 147.14 51.14 147.14 51.24C147.14 51.29 147.13 51.34 147.11 51.38ZM150.09 55.25C151.37 53.58 152.25 52.18 152.75 51.08C152.78 51 152.82 50.95 152.88 50.91C152.94 50.87 153.01 50.85 153.08 50.85C153.2 50.85 153.29 50.89 153.37 50.97C153.44 51.05 153.48 51.14 153.48 51.24C153.48 51.29 153.47 51.34 153.45 51.38C153.15 52.07 152.73 52.83 152.18 53.67C151.63 54.51 150.93 55.46 150.09 56.52C150.09 56.95 150.09 57.38 150.1 57.81C150.11 58.24 150.11 58.72 150.11 59.23C150.11 59.74 150.1 60.25 150.07 60.75C150.05 61.25 150.01 61.73 149.95 62.18C149.89 62.64 149.8 63.06 149.69 63.44C149.59 63.83 149.46 64.17 149.28 64.45C149.12 64.73 148.92 64.96 148.69 65.11C148.45 65.28 148.18 65.36 147.86 65.36C147.41 65.36 147.06 65.19 146.81 64.84C146.57 64.49 146.45 63.99 146.45 63.35C146.45 63.01 146.48 62.64 146.54 62.23C146.61 61.84 146.7 61.43 146.82 61C146.95 60.58 147.09 60.15 147.26 59.71C147.44 59.28 147.63 58.86 147.84 58.45C148.05 58.04 148.28 57.65 148.52 57.27C148.77 56.89 149.04 56.55 149.32 56.24C149.32 55.77 149.33 55.29 149.33 54.82C149.33 54.35 149.34 53.91 149.36 53.52C149.15 53.78 148.91 53.98 148.62 54.13C148.35 54.28 148.07 54.36 147.79 54.36C147.55 54.36 147.34 54.31 147.14 54.22C146.95 54.13 146.78 54 146.65 53.83C146.51 53.66 146.41 53.47 146.33 53.24C146.26 53.01 146.22 52.77 146.22 52.5C146.22 51.97 146.31 51.5 146.49 51.1C146.67 50.69 146.9 50.35 147.18 50.07C147.46 49.8 147.76 49.59 148.1 49.46C148.43 49.32 148.76 49.25 149.07 49.25C149.28 49.25 149.48 49.28 149.65 49.33C149.83 49.39 149.98 49.45 150.1 49.52C150.23 49.59 150.33 49.65 150.39 49.71C150.46 49.77 150.5 49.81 150.51 49.82C150.58 49.9 150.62 49.99 150.62 50.09C150.62 50.19 150.58 50.29 150.51 50.37C150.43 50.44 150.34 50.48 150.24 50.48C150.15 50.48 150.06 50.44 149.97 50.37C149.94 50.35 149.9 50.32 149.86 50.29C149.82 50.25 149.76 50.21 149.68 50.16C149.61 50.12 149.53 50.09 149.43 50.06C149.33 50.03 149.22 50.02 149.08 50.02C148.88 50.02 148.65 50.07 148.41 50.16C148.17 50.25 147.94 50.4 147.73 50.59C147.52 50.79 147.34 51.05 147.2 51.36C147.06 51.67 146.99 52.04 146.99 52.48C146.99 52.81 147.06 53.08 147.2 53.28C147.34 53.48 147.56 53.58 147.86 53.58C148 53.58 148.15 53.54 148.31 53.46C148.47 53.37 148.63 53.25 148.78 53.08C148.93 52.91 149.06 52.69 149.16 52.43C149.28 52.17 149.36 51.86 149.41 51.51C149.42 51.41 149.47 51.33 149.54 51.27C149.61 51.2 149.7 51.17 149.8 51.17C149.92 51.17 150.01 51.21 150.07 51.29C150.14 51.37 150.17 51.47 150.17 51.57C150.17 51.58 150.17 51.68 150.16 51.89C150.15 52.08 150.15 52.35 150.14 52.69C150.13 53.02 150.12 53.41 150.11 53.86C150.1 54.29 150.1 54.76 150.09 55.25ZM149.32 57.5C149 57.94 148.71 58.42 148.45 58.94C148.19 59.47 147.97 60 147.79 60.53C147.61 61.06 147.46 61.58 147.36 62.08C147.27 62.58 147.22 63.04 147.22 63.43C147.22 63.69 147.24 63.89 147.28 64.04C147.33 64.19 147.38 64.3 147.44 64.39C147.51 64.47 147.58 64.52 147.66 64.55C147.74 64.58 147.81 64.59 147.88 64.59C148.09 64.59 148.27 64.51 148.43 64.33C148.59 64.16 148.72 63.93 148.83 63.65C148.94 63.37 149.02 63.04 149.09 62.67C149.16 62.3 149.21 61.92 149.25 61.53C149.28 61.14 149.3 60.75 149.32 60.36C149.33 59.97 149.34 59.61 149.34 59.28C149.34 58.99 149.34 58.69 149.34 58.4C149.34 58.1 149.33 57.8 149.32 57.5ZM154.42 46.2C154.42 46.46 154.32 46.68 154.14 46.86C153.96 47.04 153.75 47.13 153.49 47.13C153.23 47.13 153.01 47.04 152.83 46.86C152.65 46.68 152.56 46.46 152.56 46.2C152.56 46.07 152.59 45.95 152.63 45.84C152.68 45.72 152.75 45.62 152.83 45.54C152.92 45.45 153.01 45.38 153.12 45.33C153.24 45.29 153.36 45.26 153.49 45.26C153.62 45.26 153.74 45.29 153.85 45.33C153.96 45.38 154.06 45.45 154.14 45.54C154.23 45.62 154.3 45.72 154.34 45.84C154.39 45.95 154.42 46.07 154.42 46.2ZM152.77 52.2C152.77 51.22 152.83 50.24 152.95 49.26C152.96 49.17 153 49.08 153.07 49.02C153.15 48.94 153.24 48.9 153.36 48.9C153.46 48.9 153.54 48.94 153.61 49.03C153.68 49.1 153.71 49.19 153.71 49.29C153.71 49.33 153.7 49.46 153.68 49.66C153.67 49.87 153.65 50.11 153.62 50.4C153.6 50.68 153.58 50.98 153.56 51.3C153.55 51.62 153.54 51.91 153.54 52.17C153.54 52.54 153.57 52.83 153.64 53.06C153.72 53.27 153.81 53.45 153.92 53.57C154.03 53.69 154.15 53.77 154.27 53.81C154.4 53.86 154.52 53.88 154.64 53.88C154.83 53.88 155.03 53.81 155.23 53.67C155.43 53.53 155.64 53.34 155.85 53.1C156.07 52.85 156.28 52.56 156.5 52.21C156.72 51.87 156.93 51.48 157.14 51.06C157.18 50.99 157.22 50.94 157.28 50.9C157.35 50.86 157.41 50.84 157.49 50.84C157.6 50.84 157.69 50.88 157.75 50.96C157.83 51.05 157.86 51.13 157.86 51.23C157.86 51.3 157.85 51.36 157.82 51.4C157.74 51.56 157.64 51.75 157.52 51.98C157.4 52.2 157.26 52.44 157.1 52.68C156.95 52.92 156.77 53.15 156.58 53.39C156.4 53.63 156.2 53.84 155.99 54.03C155.78 54.21 155.56 54.36 155.33 54.48C155.1 54.6 154.87 54.66 154.63 54.66C154.32 54.66 154.06 54.59 153.82 54.46C153.59 54.33 153.4 54.16 153.23 53.94C153.08 53.72 152.96 53.46 152.88 53.17C152.8 52.87 152.77 52.55 152.77 52.2ZM153.85 46.2C153.85 46.1 153.81 46.02 153.73 45.95C153.67 45.87 153.58 45.84 153.49 45.84C153.39 45.84 153.31 45.87 153.24 45.95C153.18 46.02 153.14 46.1 153.14 46.2C153.14 46.29 153.18 46.37 153.24 46.44C153.31 46.51 153.39 46.54 153.49 46.54C153.58 46.54 153.67 46.51 153.73 46.44C153.81 46.37 153.85 46.29 153.85 46.2ZM163.79 51.4C163.75 51.48 163.67 51.62 163.57 51.81C163.48 52.01 163.35 52.24 163.18 52.49C163.01 52.74 162.82 52.99 162.59 53.26C162.36 53.53 162.09 53.77 161.79 54C161.49 54.22 161.16 54.4 160.78 54.54C160.42 54.69 160.02 54.76 159.58 54.76C159.2 54.76 158.86 54.69 158.56 54.54C158.26 54.41 158 54.21 157.79 53.96C157.58 53.7 157.42 53.39 157.32 53.05C157.21 52.7 157.15 52.31 157.15 51.89C157.15 51.48 157.21 51.09 157.33 50.74C157.44 50.38 157.6 50.06 157.79 49.79C158 49.53 158.23 49.32 158.5 49.17C158.76 49.01 159.04 48.93 159.34 48.93C159.56 48.93 159.77 48.97 159.95 49.06C160.13 49.13 160.29 49.23 160.41 49.36C160.54 49.49 160.64 49.64 160.7 49.79C160.78 49.95 160.82 50.11 160.82 50.27C160.82 50.42 160.8 50.56 160.75 50.69C160.72 50.82 160.67 50.93 160.61 51.04C160.56 51.13 160.49 51.21 160.42 51.27C160.34 51.33 160.27 51.35 160.2 51.35C160.08 51.35 159.99 51.32 159.91 51.24C159.84 51.17 159.81 51.07 159.81 50.96C159.81 50.91 159.82 50.86 159.84 50.82C159.87 50.78 159.89 50.74 159.92 50.7C159.95 50.65 159.98 50.59 160 50.53C160.03 50.46 160.04 50.38 160.04 50.28C160.04 50.13 159.97 50 159.84 49.89C159.71 49.77 159.54 49.71 159.34 49.71C159.15 49.71 158.97 49.77 158.79 49.89C158.62 50 158.47 50.16 158.34 50.36C158.21 50.55 158.11 50.78 158.03 51.05C157.95 51.31 157.92 51.58 157.92 51.88C157.92 52.16 157.95 52.42 158.02 52.68C158.09 52.93 158.19 53.15 158.32 53.35C158.46 53.54 158.63 53.7 158.83 53.81C159.04 53.93 159.29 53.99 159.57 53.99C159.94 53.99 160.28 53.92 160.59 53.79C160.9 53.66 161.19 53.49 161.45 53.28C161.71 53.08 161.93 52.85 162.13 52.61C162.33 52.37 162.49 52.14 162.63 51.93C162.77 51.71 162.88 51.52 162.95 51.36C163.03 51.2 163.08 51.1 163.1 51.06C163.12 50.99 163.17 50.94 163.23 50.9C163.3 50.86 163.37 50.84 163.44 50.84C163.56 50.84 163.65 50.88 163.72 50.96C163.79 51.05 163.83 51.14 163.83 51.24C163.83 51.28 163.81 51.34 163.79 51.4Z" fill="#000000" fill-opacity="1.000000" fill-rule="nonzero"/>
	</g>
</svg>
