<svg aria-hidden="true" style="position: absolute; width: 0; height: 0; overflow: hidden;" version="1.1" xmlns="http://www.w3.org/2000/svg" xmlns:xlink="http://www.w3.org/1999/xlink">
<defs>
<symbol id="icon-logo" viewBox="0 0 75 32">
<path fill="none" stroke="#000" style="stroke: var(--color1, #000)" stroke-linejoin="round" stroke-linecap="round" stroke-miterlimit="4" stroke-width="0.9143" d="M8.731 9.943l-7.941 8 7.941 8"></path>
<path fill="none" stroke="#000" style="stroke: var(--color1, #000)" stroke-linejoin="round" stroke-linecap="round" stroke-miterlimit="4" stroke-width="0.9143" d="M24.613 9.943l7.941 8-7.941 8"></path>
<path fill="#000" style="fill: var(--color1, #000)" d="M19.479 4.032l-6.821 25.637c-0.091 0.347-0.448 0.558-0.791 0.462-0.347-0.091-0.553-0.453-0.457-0.8l6.816-25.637c0.091-0.347 0.448-0.553 0.795-0.462 0.343 0.091 0.549 0.453 0.457 0.8z"></path>
<path fill="#d9d9d9" style="fill: var(--color2, #d9d9d9)" d="M18.226 3.694c0.091-0.347 0.448-0.553 0.795-0.462 0.343 0.091 0.549 0.453 0.457 0.8l-0.832 3.122-1.253-0.338 0.832-3.122z"></path>
<path fill="none" stroke="#000" style="stroke: var(--color1, #000)" stroke-linejoin="miter" stroke-linecap="round" stroke-miterlimit="4" stroke-width="0.6857" d="M20.398 5.614l2.505 0.677"></path>
<path fill="none" stroke="#000" style="stroke: var(--color1, #000)" stroke-linejoin="miter" stroke-linecap="round" stroke-miterlimit="4" stroke-width="0.6857" d="M14.139 3.927l2.505 0.677"></path>
<path fill="none" stroke="#000" style="stroke: var(--color1, #000)" stroke-linejoin="miter" stroke-linecap="round" stroke-miterlimit="4" stroke-width="0.6857" d="M15.598 0.965l1.298 2.249"></path>
<path fill="none" stroke="#000" style="stroke: var(--color1, #000)" stroke-linejoin="miter" stroke-linecap="round" stroke-miterlimit="4" stroke-width="0.6857" d="M13.961 7.113l2.24-1.289"></path>
<path fill="none" stroke="#000" style="stroke: var(--color1, #000)" stroke-linejoin="miter" stroke-linecap="round" stroke-miterlimit="4" stroke-width="0.6857" d="M20.064 6.866l1.303 2.249"></path>
<path fill="none" stroke="#000" style="stroke: var(--color1, #000)" stroke-linejoin="miter" stroke-linecap="round" stroke-miterlimit="4" stroke-width="0.6857" d="M20.759 4.256l2.245-1.289"></path>
<path fill="#000" style="fill: var(--color1, #000)" d="M43.68 12.055c-0.663 0-1.257-0.146-1.792-0.443-0.526-0.293-0.942-0.699-1.248-1.216-0.297-0.526-0.448-1.111-0.448-1.76 0-0.645 0.151-1.225 0.448-1.746 0.306-0.526 0.722-0.933 1.257-1.23 0.535-0.293 1.129-0.439 1.792-0.439 0.494 0 0.951 0.082 1.371 0.251 0.421 0.165 0.777 0.407 1.070 0.727l-0.448 0.453c-0.521-0.53-1.179-0.795-1.975-0.795-0.526 0-1.006 0.119-1.44 0.361-0.43 0.242-0.768 0.576-1.019 1.001-0.238 0.421-0.361 0.896-0.361 1.417 0 0.526 0.123 1.001 0.361 1.422 0.251 0.425 0.59 0.754 1.019 1.001 0.434 0.242 0.914 0.366 1.44 0.366 0.8 0 1.458-0.27 1.975-0.809l0.448 0.453c-0.293 0.32-0.654 0.567-1.079 0.741-0.421 0.165-0.878 0.247-1.371 0.247zM49.312 12.046c-0.48 0-0.914-0.11-1.303-0.325-0.389-0.224-0.695-0.535-0.914-0.923-0.224-0.389-0.334-0.832-0.334-1.326s0.11-0.933 0.334-1.326c0.219-0.389 0.526-0.69 0.914-0.91s0.823-0.329 1.303-0.329c0.485 0 0.919 0.11 1.307 0.329s0.69 0.521 0.905 0.91c0.224 0.393 0.334 0.832 0.334 1.326s-0.11 0.937-0.334 1.326c-0.215 0.389-0.517 0.699-0.905 0.923-0.389 0.215-0.823 0.325-1.307 0.325zM49.312 11.442c0.357 0 0.677-0.082 0.955-0.242 0.283-0.165 0.507-0.398 0.667-0.699 0.155-0.302 0.238-0.645 0.238-1.029s-0.082-0.727-0.238-1.024c-0.16-0.302-0.384-0.535-0.667-0.695-0.279-0.165-0.599-0.247-0.955-0.247-0.352 0-0.677 0.082-0.96 0.247-0.279 0.16-0.503 0.393-0.667 0.695-0.16 0.297-0.238 0.64-0.238 1.024s0.078 0.727 0.238 1.029c0.165 0.302 0.389 0.535 0.667 0.699 0.283 0.16 0.608 0.242 0.96 0.242zM57.81 4.873v7.127h-0.645v-1.001c-0.206 0.338-0.475 0.599-0.809 0.777s-0.709 0.27-1.125 0.27c-0.471 0-0.896-0.11-1.28-0.325-0.379-0.219-0.677-0.521-0.896-0.914-0.215-0.389-0.32-0.837-0.32-1.335s0.105-0.942 0.32-1.335c0.219-0.389 0.517-0.69 0.896-0.901 0.384-0.219 0.809-0.329 1.28-0.329 0.407 0 0.768 0.087 1.093 0.261 0.334 0.169 0.603 0.416 0.809 0.741v-3.035h0.677zM55.287 11.442c0.352 0 0.663-0.082 0.942-0.242 0.288-0.165 0.512-0.398 0.667-0.699 0.165-0.302 0.251-0.645 0.251-1.029s-0.087-0.727-0.251-1.024c-0.155-0.302-0.379-0.535-0.667-0.695-0.279-0.165-0.59-0.247-0.942-0.247-0.357 0-0.677 0.082-0.96 0.247-0.283 0.16-0.503 0.393-0.667 0.695-0.16 0.297-0.238 0.64-0.238 1.024s0.078 0.727 0.238 1.029c0.165 0.302 0.384 0.535 0.667 0.699 0.283 0.16 0.603 0.242 0.96 0.242zM59.698 6.949h0.672v5.051h-0.672v-5.051zM60.041 5.842c-0.142 0-0.261-0.046-0.357-0.142-0.091-0.096-0.142-0.21-0.142-0.347 0-0.128 0.050-0.238 0.142-0.334 0.096-0.096 0.215-0.146 0.357-0.146 0.137 0 0.256 0.050 0.352 0.146 0.096 0.087 0.142 0.197 0.142 0.325 0 0.142-0.046 0.261-0.142 0.357s-0.215 0.142-0.352 0.142zM64.809 6.907c0.626 0 1.125 0.187 1.495 0.558 0.375 0.366 0.562 0.901 0.562 1.605v2.93h-0.677v-2.862c0-0.526-0.133-0.928-0.389-1.202-0.261-0.274-0.635-0.411-1.115-0.411-0.539 0-0.969 0.165-1.289 0.489-0.311 0.32-0.466 0.763-0.466 1.335v2.651h-0.677v-5.051h0.649v0.933c0.183-0.311 0.439-0.544 0.763-0.713 0.329-0.174 0.709-0.261 1.143-0.261zM73.362 6.949v4.434c0 0.859-0.21 1.49-0.631 1.902-0.411 0.416-1.038 0.622-1.874 0.622-0.466 0-0.905-0.069-1.326-0.21-0.411-0.133-0.75-0.32-1.010-0.567l0.343-0.517c0.242 0.219 0.535 0.389 0.878 0.507 0.347 0.123 0.713 0.183 1.097 0.183 0.631 0 1.102-0.151 1.399-0.453 0.297-0.293 0.448-0.754 0.448-1.381v-0.645c-0.21 0.32-0.485 0.562-0.827 0.731-0.338 0.165-0.713 0.251-1.125 0.251-0.471 0-0.901-0.105-1.289-0.311-0.379-0.21-0.681-0.503-0.905-0.873-0.215-0.375-0.325-0.8-0.325-1.275s0.11-0.896 0.325-1.266c0.224-0.375 0.526-0.658 0.905-0.864 0.384-0.206 0.809-0.311 1.289-0.311 0.425 0 0.809 0.087 1.152 0.261s0.617 0.425 0.827 0.75v-0.969h0.649zM70.798 11.2c0.361 0 0.69-0.078 0.983-0.229 0.293-0.16 0.517-0.384 0.677-0.663 0.165-0.283 0.247-0.603 0.247-0.96 0-0.361-0.082-0.677-0.247-0.951-0.16-0.283-0.384-0.498-0.677-0.654-0.288-0.16-0.613-0.238-0.983-0.238-0.361 0-0.69 0.078-0.978 0.229-0.288 0.155-0.512 0.37-0.677 0.654-0.16 0.279-0.242 0.599-0.242 0.96 0 0.357 0.082 0.677 0.242 0.96 0.165 0.279 0.389 0.503 0.677 0.663 0.288 0.151 0.617 0.229 0.978 0.229z"></path>
<path fill="#000" style="fill: var(--color1, #000)" d="M61.893 18.761c-0.133 0.197-0.279 0.43-0.443 0.709-0.165 0.274-0.343 0.581-0.526 0.923-0.16 0.283-0.315 0.585-0.471 0.91-0.151 0.315-0.297 0.635-0.439 0.951-0.137 0.311-0.265 0.613-0.384 0.905-0.119 0.288-0.219 0.539-0.306 0.763-0.087 0.219-0.155 0.393-0.206 0.53-0.050 0.128-0.073 0.197-0.073 0.201-0.032 0.078-0.087 0.114-0.169 0.114-0.041 0-0.078-0.009-0.105-0.037-0.032-0.027-0.055-0.064-0.064-0.101 0-0.005-0.014-0.069-0.046-0.197-0.027-0.133-0.069-0.306-0.114-0.521-0.050-0.219-0.11-0.471-0.174-0.75-0.059-0.288-0.128-0.581-0.201-0.887-0.069-0.311-0.137-0.622-0.206-0.937-0.073-0.315-0.142-0.617-0.201-0.901-0.21 0.59-0.421 1.115-0.631 1.568-0.206 0.457-0.421 0.85-0.64 1.189-0.219 0.334-0.448 0.613-0.686 0.841-0.233 0.229-0.475 0.416-0.731 0.553s-0.526 0.238-0.809 0.297c-0.279 0.059-0.571 0.087-0.887 0.087-0.16 0-0.334-0.018-0.517-0.055-0.183-0.032-0.366-0.087-0.544-0.165-0.178-0.073-0.352-0.169-0.517-0.279-0.165-0.114-0.311-0.247-0.439-0.398-0.123-0.16-0.224-0.334-0.302-0.526-0.073-0.197-0.11-0.416-0.11-0.658 0-0.251 0.050-0.485 0.155-0.695 0.11-0.21 0.251-0.393 0.43-0.544s0.389-0.27 0.622-0.352c0.242-0.087 0.494-0.128 0.754-0.128 0.192 0 0.366 0.018 0.517 0.050 0.155 0.032 0.293 0.073 0.411 0.123s0.219 0.105 0.302 0.165c0.082 0.059 0.155 0.114 0.21 0.165s0.096 0.091 0.119 0.128c0.027 0.037 0.041 0.055 0.041 0.055 0.018 0.032 0.032 0.064 0.032 0.096 0 0.046-0.018 0.087-0.055 0.123-0.027 0.037-0.073 0.055-0.123 0.055-0.064 0-0.114-0.027-0.151-0.078 0-0.005-0.027-0.032-0.073-0.087s-0.123-0.114-0.229-0.183c-0.105-0.064-0.242-0.123-0.407-0.178-0.165-0.050-0.366-0.078-0.608-0.078-0.215 0-0.421 0.032-0.617 0.101-0.192 0.069-0.361 0.16-0.507 0.283-0.142 0.123-0.256 0.265-0.343 0.434-0.087 0.165-0.128 0.347-0.128 0.549 0 0.197 0.032 0.379 0.101 0.539 0.064 0.165 0.151 0.306 0.261 0.439 0.105 0.128 0.233 0.238 0.375 0.329 0.142 0.096 0.293 0.174 0.448 0.238 0.155 0.059 0.311 0.101 0.462 0.133 0.16 0.027 0.311 0.046 0.448 0.046 0.238 0 0.466-0.018 0.69-0.055s0.448-0.105 0.663-0.206c0.219-0.101 0.439-0.238 0.649-0.411s0.421-0.402 0.626-0.686c0.21-0.279 0.411-0.617 0.613-1.015 0.206-0.398 0.411-0.869 0.617-1.408 0.059-0.16 0.123-0.338 0.183-0.526 0.055-0.187 0.119-0.375 0.178-0.567-0.050-0.274-0.091-0.507-0.114-0.704-0.023-0.192-0.032-0.352-0.032-0.48 0-0.137 0.009-0.247 0.032-0.329s0.050-0.142 0.082-0.183c0.037-0.046 0.073-0.069 0.114-0.078 0.037-0.014 0.078-0.023 0.114-0.023 0.032 0 0.064 0.009 0.101 0.023 0.041 0.009 0.078 0.037 0.11 0.082 0.032 0.041 0.059 0.101 0.082 0.183s0.032 0.192 0.032 0.329c0 0.151-0.014 0.325-0.041 0.521s-0.069 0.411-0.123 0.649c0.037 0.192 0.087 0.402 0.137 0.64 0.055 0.233 0.105 0.475 0.165 0.731 0.055 0.247 0.11 0.503 0.169 0.768 0.059 0.261 0.119 0.517 0.174 0.768s0.11 0.489 0.16 0.718c0.050 0.229 0.101 0.434 0.142 0.617 0.082-0.21 0.187-0.466 0.306-0.768 0.123-0.302 0.256-0.622 0.407-0.96 0.146-0.343 0.306-0.686 0.471-1.038s0.338-0.686 0.512-0.997c0.242-0.443 0.466-0.823 0.672-1.138 0.206-0.32 0.384-0.585 0.53-0.791 0.151-0.206 0.265-0.357 0.347-0.453 0.087-0.101 0.137-0.155 0.142-0.165 0.032-0.037 0.078-0.050 0.128-0.050s0.091 0.018 0.123 0.055c0.032 0.032 0.050 0.073 0.050 0.123 0 0.018-0.005 0.041-0.014 0.064 0 0.005-0.018 0.050-0.055 0.142-0.037 0.087-0.078 0.21-0.137 0.366-0.050 0.151-0.11 0.334-0.174 0.544-0.069 0.206-0.128 0.43-0.192 0.667s-0.119 0.489-0.169 0.75c-0.046 0.261-0.078 0.521-0.101 0.782-0.009 0.119-0.018 0.242-0.023 0.375-0.005 0.128-0.009 0.256-0.009 0.389 0 0.206 0.009 0.411 0.027 0.622s0.050 0.411 0.091 0.603c0.046 0.197 0.105 0.379 0.178 0.549s0.165 0.32 0.274 0.448c0.11 0.128 0.238 0.229 0.384 0.306 0.155 0.078 0.329 0.123 0.53 0.128 0.046 0.005 0.087 0.027 0.114 0.064 0.032 0.041 0.046 0.082 0.046 0.123 0 0.046-0.018 0.082-0.050 0.119-0.037 0.032-0.073 0.050-0.123 0.050-0.046 0-0.096-0.005-0.146-0.014-0.224-0.032-0.421-0.096-0.59-0.192-0.174-0.101-0.32-0.224-0.443-0.366-0.123-0.146-0.229-0.311-0.311-0.498s-0.146-0.389-0.197-0.599c-0.050-0.215-0.087-0.434-0.105-0.663s-0.032-0.462-0.032-0.695c0-0.279 0.018-0.558 0.046-0.837s0.064-0.549 0.11-0.809c0.046-0.265 0.101-0.521 0.165-0.768 0.059-0.247 0.123-0.48 0.187-0.69zM67.25 23.488c-0.014 0.027-0.041 0.082-0.078 0.16-0.041 0.078-0.087 0.169-0.151 0.274-0.059 0.101-0.128 0.21-0.21 0.325-0.082 0.11-0.169 0.215-0.27 0.306-0.101 0.096-0.206 0.174-0.32 0.233s-0.238 0.091-0.361 0.091c-0.183 0-0.334-0.059-0.457-0.174s-0.21-0.261-0.265-0.434c-0.105 0.178-0.233 0.32-0.379 0.425s-0.288 0.155-0.434 0.155c-0.114 0-0.219-0.023-0.315-0.064-0.091-0.041-0.169-0.101-0.238-0.178-0.064-0.078-0.114-0.165-0.151-0.27-0.032-0.105-0.050-0.215-0.050-0.338 0-0.242 0.041-0.457 0.119-0.64 0.082-0.187 0.192-0.343 0.315-0.471 0.128-0.123 0.27-0.219 0.421-0.279 0.155-0.064 0.306-0.096 0.448-0.096 0.096 0 0.183 0.014 0.265 0.041 0.078 0.027 0.146 0.055 0.206 0.087 0.055 0.032 0.101 0.059 0.133 0.087s0.050 0.041 0.050 0.046c0.037 0.037 0.050 0.082 0.050 0.123 0 0.046-0.014 0.091-0.050 0.128-0.032 0.032-0.073 0.050-0.119 0.050-0.050 0-0.091-0.018-0.128-0.050-0.005-0.005-0.018-0.018-0.041-0.032-0.023-0.018-0.050-0.037-0.087-0.059-0.037-0.018-0.082-0.032-0.137-0.046-0.050-0.014-0.105-0.023-0.169-0.023-0.096 0-0.201 0.023-0.311 0.064-0.105 0.046-0.206 0.114-0.297 0.21-0.087 0.087-0.165 0.206-0.229 0.343-0.055 0.137-0.087 0.302-0.087 0.494 0 0.059 0.009 0.119 0.018 0.183 0.014 0.059 0.037 0.114 0.064 0.165 0.032 0.050 0.073 0.091 0.128 0.123 0.050 0.027 0.119 0.046 0.197 0.046 0.055 0 0.119-0.018 0.187-0.055 0.078-0.041 0.146-0.096 0.21-0.174 0.069-0.078 0.128-0.178 0.183-0.297s0.096-0.261 0.114-0.421c0.009-0.046 0.027-0.082 0.064-0.11 0.032-0.032 0.073-0.046 0.119-0.046s0.082 0.018 0.11 0.050c0.037 0.037 0.055 0.073 0.059 0.119 0 0.059 0.009 0.142 0.018 0.251 0.009 0.105 0.027 0.215 0.059 0.32s0.082 0.197 0.146 0.274c0.069 0.078 0.155 0.119 0.274 0.119 0.073 0 0.146-0.018 0.215-0.059 0.078-0.041 0.146-0.096 0.215-0.16 0.073-0.069 0.137-0.146 0.201-0.229 0.064-0.091 0.123-0.178 0.178-0.265 0.050-0.087 0.096-0.169 0.137-0.251s0.073-0.151 0.101-0.21c0.018-0.037 0.041-0.064 0.069-0.082 0.032-0.018 0.064-0.027 0.096-0.027 0.055 0 0.096 0.023 0.128 0.059 0.032 0.041 0.050 0.078 0.050 0.123 0 0.023-0.005 0.046-0.014 0.064zM68.613 25.257c0.585-0.763 0.987-1.403 1.216-1.906 0.014-0.037 0.032-0.059 0.059-0.078s0.059-0.027 0.091-0.027c0.055 0 0.096 0.018 0.133 0.055 0.032 0.037 0.050 0.078 0.050 0.123 0 0.023-0.005 0.046-0.014 0.064-0.137 0.315-0.329 0.663-0.581 1.047s-0.571 0.818-0.955 1.303c0 0.197 0 0.393 0.005 0.59s0.005 0.416 0.005 0.649c0 0.233-0.005 0.466-0.018 0.695-0.009 0.229-0.027 0.448-0.055 0.654-0.027 0.21-0.069 0.402-0.119 0.576-0.046 0.178-0.105 0.334-0.187 0.462-0.073 0.128-0.165 0.233-0.27 0.302-0.11 0.078-0.233 0.114-0.379 0.114-0.206 0-0.366-0.078-0.48-0.238-0.11-0.16-0.165-0.389-0.165-0.681 0-0.155 0.014-0.325 0.041-0.512 0.032-0.178 0.073-0.366 0.128-0.562 0.059-0.192 0.123-0.389 0.201-0.59 0.082-0.197 0.169-0.389 0.265-0.576s0.201-0.366 0.311-0.539c0.114-0.174 0.238-0.329 0.366-0.471 0-0.215 0.005-0.434 0.005-0.649s0.005-0.416 0.014-0.594c-0.096 0.119-0.206 0.21-0.338 0.279-0.123 0.069-0.251 0.105-0.379 0.105-0.11 0-0.206-0.023-0.297-0.064-0.087-0.041-0.165-0.101-0.224-0.178-0.064-0.078-0.11-0.165-0.146-0.27-0.032-0.105-0.050-0.215-0.050-0.338 0-0.242 0.041-0.457 0.123-0.64 0.082-0.187 0.187-0.343 0.315-0.471 0.128-0.123 0.265-0.219 0.421-0.279 0.151-0.064 0.302-0.096 0.443-0.096 0.096 0 0.187 0.014 0.265 0.037 0.082 0.027 0.151 0.055 0.206 0.087 0.059 0.032 0.105 0.059 0.133 0.087 0.032 0.027 0.050 0.046 0.055 0.050 0.032 0.037 0.050 0.078 0.050 0.123s-0.018 0.091-0.050 0.128c-0.037 0.032-0.078 0.050-0.123 0.050-0.041 0-0.082-0.018-0.123-0.050-0.014-0.009-0.032-0.023-0.050-0.037-0.018-0.018-0.046-0.037-0.082-0.059-0.032-0.018-0.069-0.032-0.114-0.046s-0.096-0.018-0.16-0.018c-0.091 0-0.197 0.023-0.306 0.064s-0.215 0.11-0.311 0.197c-0.096 0.091-0.178 0.21-0.242 0.352s-0.096 0.311-0.096 0.512c0 0.151 0.032 0.274 0.096 0.366s0.165 0.137 0.302 0.137c0.064 0 0.133-0.018 0.206-0.055 0.073-0.041 0.146-0.096 0.215-0.174s0.128-0.178 0.174-0.297c0.055-0.119 0.091-0.261 0.114-0.421 0.005-0.046 0.027-0.082 0.059-0.11 0.032-0.032 0.073-0.046 0.119-0.046 0.055 0 0.096 0.018 0.123 0.055 0.032 0.037 0.046 0.082 0.046 0.128 0 0.005 0 0.050-0.005 0.146-0.005 0.087-0.005 0.21-0.009 0.366-0.005 0.151-0.009 0.329-0.014 0.535-0.005 0.197-0.005 0.411-0.009 0.635zM68.261 26.286c-0.146 0.201-0.279 0.421-0.398 0.658-0.119 0.242-0.219 0.485-0.302 0.727s-0.151 0.48-0.197 0.709c-0.041 0.229-0.064 0.439-0.064 0.617 0 0.119 0.009 0.21 0.027 0.279 0.023 0.069 0.046 0.119 0.073 0.16 0.032 0.037 0.064 0.059 0.101 0.073s0.069 0.018 0.101 0.018c0.096 0 0.178-0.037 0.251-0.119 0.073-0.078 0.133-0.183 0.183-0.311s0.087-0.279 0.119-0.448c0.032-0.169 0.055-0.343 0.073-0.521 0.014-0.178 0.023-0.357 0.032-0.535 0.005-0.178 0.009-0.343 0.009-0.494 0-0.133 0-0.27 0-0.402 0-0.137-0.005-0.274-0.009-0.411zM70.592 21.12c0 0.119-0.046 0.219-0.128 0.302s-0.178 0.123-0.297 0.123c-0.119 0-0.219-0.041-0.302-0.123s-0.123-0.183-0.123-0.302c0-0.059 0.014-0.114 0.032-0.165 0.023-0.055 0.055-0.101 0.091-0.137 0.041-0.041 0.082-0.073 0.133-0.096 0.055-0.018 0.11-0.032 0.169-0.032s0.114 0.014 0.165 0.032c0.050 0.023 0.096 0.055 0.133 0.096 0.041 0.037 0.073 0.082 0.091 0.137 0.023 0.050 0.037 0.105 0.037 0.165zM69.838 23.863c0-0.448 0.027-0.896 0.082-1.344 0.005-0.041 0.023-0.082 0.055-0.11 0.037-0.037 0.078-0.055 0.133-0.055 0.046 0 0.082 0.018 0.114 0.059 0.032 0.032 0.046 0.073 0.046 0.119 0 0.018-0.005 0.078-0.014 0.169-0.005 0.096-0.014 0.206-0.027 0.338-0.009 0.128-0.018 0.265-0.027 0.411-0.005 0.146-0.009 0.279-0.009 0.398 0 0.169 0.014 0.302 0.046 0.407 0.037 0.096 0.078 0.178 0.128 0.233s0.105 0.091 0.16 0.11c0.059 0.023 0.114 0.032 0.169 0.032 0.087 0 0.178-0.032 0.27-0.096s0.187-0.151 0.283-0.261c0.101-0.114 0.197-0.247 0.297-0.407 0.101-0.155 0.197-0.334 0.293-0.526 0.018-0.032 0.037-0.055 0.064-0.073 0.032-0.018 0.059-0.027 0.096-0.027 0.050 0 0.091 0.018 0.119 0.055 0.037 0.041 0.050 0.078 0.050 0.123 0 0.032-0.005 0.059-0.018 0.078-0.037 0.073-0.082 0.16-0.137 0.265-0.055 0.101-0.119 0.21-0.192 0.32-0.069 0.11-0.151 0.215-0.238 0.325-0.082 0.11-0.174 0.206-0.27 0.293-0.096 0.082-0.197 0.151-0.302 0.206s-0.21 0.082-0.32 0.082c-0.142 0-0.261-0.032-0.37-0.091-0.105-0.059-0.192-0.137-0.27-0.238-0.069-0.101-0.123-0.219-0.16-0.352-0.037-0.137-0.050-0.283-0.050-0.443zM70.331 21.12c0-0.046-0.018-0.082-0.055-0.114-0.027-0.037-0.069-0.050-0.11-0.050-0.046 0-0.082 0.014-0.114 0.050-0.027 0.032-0.046 0.069-0.046 0.114 0 0.041 0.018 0.078 0.046 0.11 0.032 0.032 0.069 0.046 0.114 0.046 0.041 0 0.082-0.014 0.11-0.046 0.037-0.032 0.055-0.069 0.055-0.11zM74.875 23.497c-0.018 0.037-0.055 0.101-0.101 0.187-0.041 0.091-0.101 0.197-0.178 0.311s-0.165 0.229-0.27 0.352c-0.105 0.123-0.229 0.233-0.366 0.338-0.137 0.101-0.288 0.183-0.462 0.247-0.165 0.069-0.347 0.101-0.549 0.101-0.174 0-0.329-0.032-0.466-0.101-0.137-0.059-0.256-0.151-0.352-0.265-0.096-0.119-0.169-0.261-0.215-0.416-0.050-0.16-0.078-0.338-0.078-0.53 0-0.187 0.027-0.366 0.082-0.526 0.050-0.165 0.123-0.311 0.21-0.434 0.096-0.119 0.201-0.215 0.325-0.283 0.119-0.073 0.247-0.11 0.384-0.11 0.101 0 0.197 0.018 0.279 0.059 0.082 0.032 0.155 0.078 0.21 0.137 0.059 0.059 0.105 0.128 0.133 0.197 0.037 0.073 0.055 0.146 0.055 0.219 0 0.069-0.009 0.133-0.032 0.192-0.014 0.059-0.037 0.11-0.064 0.16-0.023 0.041-0.055 0.078-0.087 0.105-0.037 0.027-0.069 0.037-0.101 0.037-0.055 0-0.096-0.014-0.133-0.050-0.032-0.032-0.046-0.078-0.046-0.128 0-0.023 0.005-0.046 0.014-0.064 0.014-0.018 0.023-0.037 0.037-0.055 0.014-0.023 0.027-0.050 0.037-0.078 0.014-0.032 0.018-0.069 0.018-0.114 0-0.069-0.032-0.128-0.091-0.178-0.059-0.055-0.137-0.082-0.229-0.082-0.087 0-0.169 0.027-0.251 0.082-0.078 0.050-0.146 0.123-0.206 0.215-0.059 0.087-0.105 0.192-0.142 0.315-0.037 0.119-0.050 0.242-0.050 0.379 0 0.128 0.014 0.247 0.046 0.366 0.032 0.114 0.078 0.215 0.137 0.306 0.064 0.087 0.142 0.16 0.233 0.21 0.096 0.055 0.21 0.082 0.338 0.082 0.169 0 0.325-0.032 0.466-0.091s0.274-0.137 0.393-0.233c0.119-0.091 0.219-0.197 0.311-0.306s0.165-0.215 0.229-0.311c0.064-0.101 0.114-0.187 0.146-0.261 0.037-0.073 0.059-0.119 0.069-0.137 0.009-0.032 0.032-0.055 0.059-0.073 0.032-0.018 0.064-0.027 0.096-0.027 0.055 0 0.096 0.018 0.128 0.055 0.032 0.041 0.050 0.082 0.050 0.128 0 0.018-0.009 0.046-0.018 0.073z"></path>
</symbol>
<symbol id="icon-search" viewBox="0 0 32 32">
<path fill="none" stroke="#fff" style="stroke: var(--color3, #fff)" stroke-linejoin="miter" stroke-linecap="butt" stroke-miterlimit="4" stroke-width="3.999" d="M24.081 13.040c0 6.098-4.943 11.041-11.041 11.041s-11.041-4.943-11.041-11.041c0-6.098 4.943-11.041 11.041-11.041s11.041 4.943 11.041 11.041z"></path>
<path fill="#fff" style="fill: var(--color3, #fff)" d="M20.095 22.914l0.020 0.040 8.458 8.438c0.78 0.8 2.039 0.8 2.819 0 0.8-0.78 0.8-2.039 0-2.819l-8.438-8.458-0.040-0.020-1.4-1.42-2.839 2.839 1.42 1.4z"></path>
</symbol>
</defs>
</svg>
